<svg height="480pt" viewBox="0 0 480 480" width="480pt" xmlns="http://www.w3.org/2000/svg"><path d="m82.34375 173.65625 11.3125-11.3125-26.34375-26.34375 26.34375-26.34375-11.3125-11.3125-32 32c-3.121094 3.125-3.121094 8.1875 0 11.3125zm0 0"/><path d="m173.65625 173.65625 32-32c3.121094-3.125 3.121094-8.1875 0-11.3125l-32-32-11.3125 11.3125 26.34375 26.34375-26.34375 26.34375zm0 0"/><path d="m112.234375 166.058594 16.007813-63.996094 15.519531 3.882812-16.003907 63.996094zm0 0"/><path d="m224 120h80v16h-80zm0 0"/><path d="m320 120h32v16h-32zm0 0"/><path d="m368 120h64v16h-64zm0 0"/><path d="m224 152h48v16h-48zm0 0"/><path d="m288 152h32v16h-32zm0 0"/><path d="m336 152h96v16h-96zm0 0"/><path d="m48 200h48v16h-48zm0 0"/><path d="m112 200h64v16h-64zm0 0"/><path d="m192 200h16v16h-16zm0 0"/><path d="m224 200h208v16h-208zm0 0"/><path d="m48 232h160v16h-160zm0 0"/><path d="m224 232h48v16h-48zm0 0"/><path d="m288 232h144v16h-144zm0 0"/><path d="m48 264h96v16h-96zm0 0"/><path d="m160 264h80v16h-80zm0 0"/><path d="m256 264h112v16h-112zm0 0"/><path d="m384 264h48v16h-48zm0 0"/><path d="m440 0h-400c-22.082031.0273438-39.9726562 17.917969-40 40v304c.0273438 22.082031 17.917969 39.972656 40 40h134.9375l-6 48h-16.9375c-13.253906 0-24 10.746094-24 24s10.746094 24 24 24h176c13.253906 0 24-10.746094 24-24s-10.746094-24-24-24h-16.9375l-6-48h134.9375c22.082031-.027344 39.972656-17.917969 40-40v-304c-.027344-22.082031-17.917969-39.9726562-40-40zm-400 16h400c13.253906 0 24 10.746094 24 24v24h-448v-24c0-13.253906 10.746094-24 24-24zm424 64v224h-448v-224zm-128 376c0 4.417969-3.582031 8-8 8h-176c-4.417969 0-8-3.582031-8-8s3.582031-8 8-8h176c4.417969 0 8 3.582031 8 8zm-41.0625-24h-109.875l6-48h97.875zm145.0625-64h-400c-13.253906 0-24-10.746094-24-24v-24h448v24c0 13.253906-10.746094 24-24 24zm0 0"/><path d="m416 336h16v16h-16zm0 0"/><path d="m48 32h16v16h-16zm0 0"/><path d="m80 32h16v16h-16zm0 0"/><path d="m112 32h16v16h-16zm0 0"/></svg>