<?xml version="1.0" encoding="iso-8859-1"?>
<!-- Generator: Adobe Illustrator 19.0.0, SVG Export Plug-In . SVG Version: 6.00 Build 0)  -->
<svg version="1.1" id="Capa_1" xmlns="http://www.w3.org/2000/svg" xmlns:xlink="http://www.w3.org/1999/xlink" x="0px" y="0px"
	 viewBox="0 0 480 480" style="enable-background:new 0 0 480 480;" xml:space="preserve">
<g>
	<g>
		<path d="M408.152,32H23.848C10.683,32.013,0.013,42.683,0,55.848v272.304C0.013,341.317,10.683,351.987,23.848,352H152v48h-8
			c-4.418,0-8,3.582-8,8v24h-32v16h224v-16h-32v-24c0-4.418-3.582-8-8-8h-8v-48h40v-16H23.848c-4.333-0.004-7.844-3.516-7.848-7.848
			V55.848c0.004-4.333,3.516-7.844,7.848-7.848H408.16c4.33,0,7.84,3.51,7.84,7.84V136h16V55.84
			C431.982,42.678,421.314,32.013,408.152,32z M280,432H152v-16h128V432z M168,352h96v48h-96V352z"/>
	</g>
</g>
<g>
	<g>
		<rect x="32" y="272" width="288" height="16"/>
	</g>
</g>
<g>
	<g>
		<path d="M384,64H48c-8.837,0-16,7.163-16,16v160h16V80h336v48h16V80C400,71.163,392.837,64,384,64z"/>
	</g>
</g>
<g>
	<g>
		<path d="M72,96c-4.418,0-8,3.582-8,8v24h16v-16h16V96H72z"/>
	</g>
</g>
<g>
	<g>
		<path d="M456,152h-96c-13.255,0-24,10.745-24,24v208c0,13.255,10.745,24,24,24h96c13.255,0,24-10.745,24-24V176
			C480,162.745,469.255,152,456,152z M464,384c0,4.418-3.582,8-8,8h-96c-4.418,0-8-3.582-8-8v-24h112V384z M464,344H352V200h112V344
			z M464,184H352v-8c0-4.418,3.582-8,8-8h96c4.418,0,8,3.582,8,8V184z"/>
	</g>
</g>
<g>
	<g>
		<rect x="400" y="368" width="16" height="16"/>
	</g>
</g>
<g>
	<g>
		<rect x="400" y="256" width="16" height="16"/>
	</g>
</g>
<g>
	<g>
		<rect x="432" y="256" width="16" height="16"/>
	</g>
</g>
<g>
	<g>
		<rect x="368" y="256" width="16" height="16"/>
	</g>
</g>
<g>
</g>
<g>
</g>
<g>
</g>
<g>
</g>
<g>
</g>
<g>
</g>
<g>
</g>
<g>
</g>
<g>
</g>
<g>
</g>
<g>
</g>
<g>
</g>
<g>
</g>
<g>
</g>
<g>
</g>
</svg>
