<svg height="512" viewBox="0 0 64 64" width="512" xmlns="http://www.w3.org/2000/svg"><g id="Data-Web_Server" data-name="Data-Web Server"><path d="m45 2c-8.448 0-17 2.061-17 6v18h-23a3 3 0 0 0 -3 3v30a3 3 0 0 0 3 3h46a3 3 0 0 0 3-3v-13.846c5.095-1.046 8-2.9 8-5.154v-32c0-3.939-8.552-6-17-6zm0 2c9.156 0 15 2.369 15 4s-5.844 4-15 4-15-2.369-15-4 5.844-4 15-4zm-40 24h21v6h-22v-5a1 1 0 0 1 1-1zm-1 31v-23h22v24h-21a1 1 0 0 1 -1-1zm48 0a1 1 0 0 1 -1 1h-23v-32h23a1 1 0 0 1 1 1zm2-15.891v-5.955a17.447 17.447 0 0 0 6-2.189v5.035c0 .731-1.659 2.153-6 3.109zm0-8v-5.955a17.5 17.5 0 0 0 6-2.191v5.037c0 .731-1.659 2.153-6 3.109zm-.589-7.877a2.991 2.991 0 0 0 -2.411-1.232h-9v-2h-2v2h-7.587c-1.766-.761-2.413-1.528-2.413-2v-5.031c3.018 2 9.027 3.031 15 3.031s11.982-1.035 15-3.031v5.031c0 .764-1.809 2.276-6.589 3.232zm-8.411-7.232c-9.156 0-15-2.369-15-4v-5.031c3.018 2 9.027 3.031 15 3.031s11.982-1.035 15-3.031v5.031c0 1.631-5.844 4-15 4z"/><path d="m32 14h2v2h-2z"/><path d="m36 15h2v2h-2z"/><path d="m40 16h2v2h-2z"/><path d="m32 22h2v2h-2z"/><path d="m36 23h2v2h-2z"/><path d="m39 7h12v2h-12z"/><path d="m6 30h2v2h-2z"/><path d="m10 30h2v2h-2z"/><path d="m14 30h2v2h-2z"/><path d="m7 47h8a1 1 0 0 0 1-1v-6a1 1 0 0 0 -1-1h-8a1 1 0 0 0 -1 1v6a1 1 0 0 0 1 1zm1-6h6v4h-6z"/><path d="m18 40h6v2h-6z"/><path d="m18 44h6v2h-6z"/><path d="m6 51h4v2h-4z"/><path d="m12 51h12v2h-12z"/><path d="m6 55h18v2h-18z"/><path d="m35.293 39.707 1.414-1.414-2.293-2.293 2.293-2.293-1.414-1.414-3 3a1 1 0 0 0 0 1.414z"/><path d="m44.707 32.293-1.414 1.414 2.293 2.293-2.293 2.293 1.414 1.414 3-3a1 1 0 0 0 0-1.414z"/><path d="m36.838 35h6.325v1.999h-6.325z" transform="matrix(.317 -.949 .949 .317 -6.81 62.549)"/><path d="m32 43h4v2h-4z"/><path d="m38 43h8v2h-8z"/><path d="m34 47h6v2h-6z"/><path d="m42 47h4v2h-4z"/><path d="m32 51h4v2h-4z"/><path d="m38 51h6v2h-6z"/><path d="m34 55h8v2h-8z"/><path d="m44 55h2v2h-2z"/></g></svg>