<svg height="512" viewBox="0 0 64 64" width="512" xmlns="http://www.w3.org/2000/svg"><g id="Photo_Camera-Photo-Photograph-Camera-Vintage" data-name="Photo Camera-Photo-Photograph-Camera-Vintage"><path d="m32 42a9 9 0 1 0 -9-9 9.01 9.01 0 0 0 9 9zm0-16a7 7 0 1 1 -7 7 7.008 7.008 0 0 1 7-7z"/><path d="m57 24h-6a1 1 0 0 0 -1 1v6a1 1 0 0 0 1 1h6a1 1 0 0 0 1-1v-6a1 1 0 0 0 -1-1zm-1 6h-4v-4h4z"/><path d="m8 35h6v2h-6z"/><path d="m8 31h4v2h-4z"/><path d="m35 33h2a5.006 5.006 0 0 0 -5-5v2a3 3 0 0 1 3 3z"/><path d="m61 10h-36a1 1 0 0 0 -1 1v3h-10v-3a1 1 0 0 0 -1-1h-6a1 1 0 0 0 -1 1v3h-3a1 1 0 0 0 -1 1v36a3.009 3.009 0 0 0 3 3h54a3.009 3.009 0 0 0 3-3v-40a1 1 0 0 0 -1-1zm-53 2h4v2h-4zm-4 10h21.1a12.968 12.968 0 0 0 0 22h-21.1zm28 0a11 11 0 1 1 -11 11 11.007 11.007 0 0 1 11-11zm28 29a1 1 0 0 1 -1 1h-54a1 1 0 0 1 -1-1v-5h56zm0-7h-21.1a12.968 12.968 0 0 0 0-22h21.1zm-16-24v-4h6v4zm16 0h-8v-5a1 1 0 0 0 -1-1h-8a1 1 0 0 0 -1 1v5h-38v-4h21a1 1 0 0 0 1-1v-3h34z"/><circle cx="32" cy="16" r="2"/></g></svg>