<svg xmlns="http://www.w3.org/2000/svg" viewBox="0 0 750 500"><g id="freepik--background-simple--inject-37"><path d="M607.59,82.08C578.75,46.69,528.13,32.21,483.76,43s-81.5,44.63-100.43,86.18c-7.86,17.26-13.63,36.86-28.75,48.31-12.18,9.22-28.34,11.32-43.59,10.65s-30.36-3.77-45.63-3.65c-40.07.31-79,24.9-96.47,61a102.16,102.16,0,0,0-5.52,13.93C150,302.11,153.45,352,189.94,378l15.79,11.53c62.07,37.59,108.08,35.68,137.38,39.5s92.71,4,120.33-6.47c76.69-29.15,97.72-58.58,134.15-106C624,282.21,638.68,232.39,638.78,189,638.86,151.14,631.51,111.45,607.59,82.08Z" style="fill:#f5f5f5"></path></g><g id="freepik--Floor--inject-37"><path d="M712.17,477.45c0,.14-151,.26-337.15.26s-337.19-.12-337.19-.26,150.94-.26,337.19-.26S712.17,477.3,712.17,477.45Z" style="fill:#263238"></path></g><g id="freepik--character-1--inject-37"><path d="M511.6,181.84l3.33-11.6s1.21-4.71,1.5-5.81c.37-1.46-.64-1.93-1.26-.94-.23.38-2.83,5.16-2.83,5.16l2.19-8.14c.68-2.56-.92-2.31-1.39-1.4s-3.44,8.67-3.44,8.67c2.79-10.1,2-11,1.2-11.17s-3.23,9.07-3.23,9.07a8.55,8.55,0,0,0-2.42-2.69c-2.43-1.71-6.52-.06-6.73,1.09s1.25,1.48,1.25,1.48a3.68,3.68,0,0,1,5.85,3.4,2.29,2.29,0,0,1-4.49.39c-1-4.57-2.56-3.11-2.56-3.11l1.49,10.09-1.72,5" style="fill:#b78876"></path><path d="M457.6,141.72c3.79-1,6.13-2.36,6.13-3.84,0-3.08-9.94-5.57-22.19-5.57s-22.19,2.49-22.19,5.57c0,1.48,2.3,2.82,6.07,3.82" style="fill:#407BFF"></path><g style="opacity:0.4"><path d="M455.48,141.61c3.37-.89,5.52-2.09,5.43-3.41-.23-3.66-8.8-4.93-19.67-4.93s-19.66,2.21-19.66,4.93c0,1.32,2,2.51,5.38,3.39"></path></g><path d="M460.68,136.43s-3.18-13-3.45-13.68-4-6.35-12.88-8H437s-10.43,3.36-12.33,5.9S422,135.54,422,135.54l20.59-4.48,14,3.41Z" style="fill:#407BFF"></path><path d="M442,113.28h3.15a5.09,5.09,0,0,1,1.26,3.31c.14,2.28.66,17.95.66,17.95l-9.21-.42.3-19.35-3.13.7.1-1.1.83-1Z" style="fill:#407BFF"></path><path d="M393.68,439.71l-6.07,24.06-10.28,17.65A2.54,2.54,0,0,0,378.4,485h0a2.55,2.55,0,0,0,2.33,0c4.61-2.49,21.56-11.74,21.9-13.53.4-2.06,8.08-25,8.08-25Z" style="fill:#407BFF"></path><g style="opacity:0.6000000000000001"><path d="M378.4,485l24.68-15.18-.28,1a3.87,3.87,0,0,1-1.54,2.15c-2,1.37-7.65,5-20.46,12a2.52,2.52,0,0,1-2.4,0Z" style="fill:#fff"></path></g><g style="opacity:0.6000000000000001"><path d="M400.3,460.73a1.54,1.54,0,0,0-.94,1.82,1.47,1.47,0,0,0,1.8.95,1.62,1.62,0,0,0,1-1.94,1.54,1.54,0,0,0-2-.78" style="fill:#fff"></path></g><path d="M386.75,476a7.61,7.61,0,0,0-1.58-2.44,7.92,7.92,0,0,0-2.61-1.29c0-.06.35-.16.93-.09a3.91,3.91,0,0,1,2,1,4,4,0,0,1,1.21,1.91C386.88,475.67,386.82,476,386.75,476Z" style="fill:#263238"></path><path d="M384.17,478.77c-.15.07-.7-.92-1.84-1.61a21.15,21.15,0,0,0-2.25-1,2.81,2.81,0,0,1,2.54.49C383.91,477.5,384.31,478.74,384.17,478.77Z" style="fill:#263238"></path><path d="M391.06,472.81a25.62,25.62,0,0,0-2.66-2.68,24.9,24.9,0,0,0-3.32-1.81,5.63,5.63,0,0,1,3.65,1.37A5.7,5.7,0,0,1,391.06,472.81Z" style="fill:#263238"></path><path d="M393.52,465.65c-.11.13-1.28-.79-3-1.33s-3.18-.5-3.19-.66a4.87,4.87,0,0,1,3.36.14A4.94,4.94,0,0,1,393.52,465.65Z" style="fill:#263238"></path><path d="M395.47,458.63a12.6,12.6,0,0,0-3.06-1.46,12.14,12.14,0,0,0-3.39-.08c0-.07.32-.29,1-.46a5.6,5.6,0,0,1,4.85,1.16C395.32,458.23,395.52,458.59,395.47,458.63Z" style="fill:#263238"></path><path d="M392.83,455.84a2.1,2.1,0,0,1,.21-.91,6.57,6.57,0,0,1,1.38-2.17,2.85,2.85,0,0,1,1.56-1,1,1,0,0,1,1,.52,1.64,1.64,0,0,1,.08,1.19,3.58,3.58,0,0,1-3.92,2.36,4.16,4.16,0,0,1-3.37-3.19,1.47,1.47,0,0,1,.26-1.18,1,1,0,0,1,1.15-.23,3.53,3.53,0,0,1,1.35,1.26,7.28,7.28,0,0,1,1.12,2.3,2.28,2.28,0,0,1,.14.93,11.45,11.45,0,0,0-1.57-3,3.33,3.33,0,0,0-1.2-1.07.54.54,0,0,0-.63.13,1,1,0,0,0-.12.78,3.71,3.71,0,0,0,2.95,2.73,3.11,3.11,0,0,0,3.36-2,1.29,1.29,0,0,0,0-.83.56.56,0,0,0-.58-.29,2.52,2.52,0,0,0-1.34.82A9.63,9.63,0,0,0,392.83,455.84Z" style="fill:#263238"></path><path d="M458.35,446.61,457,465.81s19.07,7.8,19.17,11.37l-37.31-1.24.84-30Z" style="fill:#407BFF"></path><path d="M445.54,463.81a1.51,1.51,0,0,0-1.11,1.7,1.46,1.46,0,0,0,1.68,1.12,1.6,1.6,0,0,0,1.16-1.81,1.52,1.52,0,0,0-1.87-1" style="fill:#e0e0e0"></path><g style="opacity:0.6000000000000001"><path d="M438.88,475.94l.2-3,35.7,2.32s1.64.78,1.41,1.94Z" style="fill:#fff"></path></g><path d="M457.63,465.64c0,.18-.92.24-1.84.79s-1.42,1.31-1.58,1.23.14-1.12,1.26-1.77S457.68,465.48,457.63,465.64Z" style="fill:#263238"></path><path d="M461.49,467.39c0,.18-.76.46-1.4,1.21s-.85,1.56-1,1.55-.26-1,.56-2S461.5,467.22,461.49,467.39Z" style="fill:#263238"></path><path d="M463.56,472.15c-.17,0-.39-.89.11-1.87s1.37-1.35,1.44-1.2-.47.67-.87,1.49S463.74,472.14,463.56,472.15Z" style="fill:#263238"></path><path d="M457.45,461.23c-.08.17-.91-.11-1.94-.08s-1.84.34-1.93.18.7-.79,1.92-.81S457.55,461.09,457.45,461.23Z" style="fill:#263238"></path><path d="M457.65,457.36a3.59,3.59,0,0,1-1.87-.08,7.75,7.75,0,0,1-1.93-.66,8.23,8.23,0,0,1-1.06-.61,2,2,0,0,1-.55-.46.8.8,0,0,1-.05-1,1,1,0,0,1,.81-.39,2.67,2.67,0,0,1,.7.12,7.43,7.43,0,0,1,1.15.44,6.53,6.53,0,0,1,1.68,1.19c.84.83,1.12,1.52,1.05,1.55s-.48-.52-1.34-1.22a7.56,7.56,0,0,0-1.64-1,7.75,7.75,0,0,0-1.06-.37c-.39-.11-.73-.13-.84,0s0,.1,0,.22a2.5,2.5,0,0,0,.4.33c.33.23.65.42,1,.6a11.27,11.27,0,0,0,1.78.75A11.67,11.67,0,0,1,457.65,457.36Z" style="fill:#263238"></path><path d="M457.4,457.61a3.08,3.08,0,0,1-.43-1.82,6.1,6.1,0,0,1,.32-2,6.24,6.24,0,0,1,.52-1.12,1.52,1.52,0,0,1,1.22-.9.86.86,0,0,1,.76.54,2.22,2.22,0,0,1,.17.7,4,4,0,0,1,0,1.25,4.33,4.33,0,0,1-.86,1.91c-.76.94-1.53,1.13-1.54,1.07s.59-.42,1.18-1.33a4.42,4.42,0,0,0,.65-1.74,4.34,4.34,0,0,0,0-1.08c-.05-.4-.19-.72-.34-.69s-.51.28-.67.59a6.66,6.66,0,0,0-.5,1,6.82,6.82,0,0,0-.42,1.85C457.33,456.9,457.5,457.58,457.4,457.61Z" style="fill:#263238"></path><path d="M427.72,186.51l22.43-1c.13-2.38-1.09-17.1-1.09-17.1s8.48-1.32,8.59-9.8-1.18-25.41-1.18-25.41l-.15-.74c-9.81-4.21-21.18-4.59-29.64,1.93l-1.26,1Z" style="fill:#b78876"></path><path d="M449.08,168.25A19.7,19.7,0,0,1,438,165.11s2.62,6.1,11.08,5.34Z" style="fill:#aa6550"></path><path d="M426.46,144.1c-.14-.06-5.82-1.72-5.64,4.08s6,4.41,6,4.25S426.46,144.1,426.46,144.1Z" style="fill:#b78876"></path><path d="M425,150.29s-.09.07-.26.15a1,1,0,0,1-.76,0,2.48,2.48,0,0,1-1.22-2.2,3.3,3.3,0,0,1,.23-1.46,1.17,1.17,0,0,1,.74-.8.52.52,0,0,1,.6.26c.08.16.05.28.08.29s.12-.1.07-.34a.66.66,0,0,0-.24-.36.75.75,0,0,0-.56-.13,1.42,1.42,0,0,0-1,.94,3.4,3.4,0,0,0-.3,1.62,2.65,2.65,0,0,0,1.55,2.46,1.1,1.1,0,0,0,.92-.18C425,150.43,425,150.3,425,150.29Z" style="fill:#aa6550"></path><path d="M453.5,143.77a1.2,1.2,0,0,1-1.16,1.22,1.15,1.15,0,0,1-1.25-1.09,1.21,1.21,0,0,1,1.16-1.22A1.15,1.15,0,0,1,453.5,143.77Z" style="fill:#263238"></path><path d="M454.68,142.56c-.15.16-1.07-.52-2.37-.52s-2.26.66-2.4.5.08-.36.5-.66a3.29,3.29,0,0,1,1.92-.59,3.17,3.17,0,0,1,1.89.61C454.62,142.2,454.75,142.49,454.68,142.56Z" style="fill:#263238"></path><path d="M440.7,144.23a1.21,1.21,0,0,1-1.17,1.22,1.16,1.16,0,0,1-1.25-1.09,1.22,1.22,0,0,1,1.17-1.23A1.18,1.18,0,0,1,440.7,144.23Z" style="fill:#263238"></path><path d="M441.87,142.8c-.15.16-1.07-.52-2.37-.51s-2.26.65-2.4.49.08-.35.5-.66a3.36,3.36,0,0,1,1.92-.59,3.14,3.14,0,0,1,1.89.61C441.81,142.45,442,142.73,441.87,142.8Z" style="fill:#263238"></path><path d="M446.6,152.47a8.06,8.06,0,0,1,2.12-.39c.33,0,.64-.1.7-.32a1.7,1.7,0,0,0-.22-1c-.31-.81-.64-1.65-1-2.53a45.49,45.49,0,0,1-2.21-6.63,42.67,42.67,0,0,1,2.74,6.43c.33.89.65,1.74.94,2.55a1.91,1.91,0,0,1,.18,1.31.82.82,0,0,1-.55.48,2,2,0,0,1-.56.08A9.11,9.11,0,0,1,446.6,152.47Z" style="fill:#263238"></path><path d="M442.77,153.37c.21,0,.21,1.4,1.42,2.4s2.72.85,2.73,1-.34.27-1,.29a3.54,3.54,0,0,1-2.28-.79,3,3,0,0,1-1.1-2C442.51,153.71,442.67,153.36,442.77,153.37Z" style="fill:#263238"></path><path d="M442.21,137.7c-.13.35-1.43.18-3,.37s-2.76.6-3,.28c-.09-.15.13-.48.63-.83a4.93,4.93,0,0,1,2.2-.77,5,5,0,0,1,2.31.27C442,137.25,442.26,137.53,442.21,137.7Z" style="fill:#263238"></path><path d="M454.2,138.79c-.23.3-1.13,0-2.21,0s-2,.2-2.2-.11c-.09-.15,0-.44.45-.72a3,3,0,0,1,1.79-.49,3,3,0,0,1,1.76.6C454.18,138.34,454.3,138.64,454.2,138.79Z" style="fill:#263238"></path><path d="M466.4,266.93l-3.71,191.55a2.35,2.35,0,0,1-2.37,2.31l-22.31-.2a2.35,2.35,0,0,1-2.33-2.4l3.46-164.87L410.12,457a4.22,4.22,0,0,1-4.3,3.48l-18.71-.65a4.21,4.21,0,0,1-4-4.86l29.39-188.8Z" style="fill:#263238"></path><path d="M512,181.59l-13.87-3.34L489,203.08l-25.29-22.63h0c-2.69-2-7.33-2.22-10.86-2.65l-.27,0c-1.37-.17-2-.36-2.86-.46-6.1,4.58-16.53,4.87-22.52.14,0,0-4.54,1-7.25,1.55-8.54,1.64-14.69,7.86-16.39,13.6l10.69,24.65,2.05,23.42-5.92,21a3.63,3.63,0,0,0,3,4.6l53,.81.86-.43c1.12-2.06,1.94-4.43,1.42-6.71-2.28-10-.69-40-1.17-49.14,10.39,10.09,21.85,18.46,30.22,13.28C504.69,219.74,512,181.59,512,181.59Z" style="fill:#e0e0e0"></path><polygon points="427.62 176.87 427.62 176.87 427.62 176.87 427.62 176.87" style="fill:#407BFF"></polygon><path d="M425.51,138.65c.22,2.35.15,4.73.38,7.08a8,8,0,0,0,.84,2.54,2.33,2.33,0,0,0,4.42,0,6.93,6.93,0,0,0,.52-3,9.62,9.62,0,0,1,.32-3.08,16.77,16.77,0,0,1,1.75-3,3.73,3.73,0,0,0,.55-3.3c-3.15-.06-6.05,1.21-8.78,2.77" style="fill:#263238"></path><path d="M456.76,137.59l-.18-4.74-13.86-4.13-17.3,5.1v5.1A42.56,42.56,0,0,1,456.76,137.59Z" style="fill:#455a64"></path><path d="M455.71,131.84l.61.59,5,3.14A78.69,78.69,0,0,0,441.82,133c-9.92.1-21.26,3.45-21.26,3.45l6.57-4h0a11.25,11.25,0,0,1,8-3.58l12.45-.25A11.3,11.3,0,0,1,455.71,131.84Z" style="fill:#407BFF"></path><path d="M446.81,128.32a42.27,42.27,0,0,1-.63-6.6,43.59,43.59,0,0,1-.11-6.63,40.87,40.87,0,0,1,.63,6.6A43.59,43.59,0,0,1,446.81,128.32Z" style="fill:#263238"></path><path d="M435,115.47a8.87,8.87,0,0,1,2.34-.68,1,1,0,0,1,1,.93v1.4c0,1,0,2,0,3.16,0,2.25-.1,4.28-.17,5.75a11.48,11.48,0,0,1-.23,2.38,11,11,0,0,1-.14-2.38c0-1.47,0-3.5,0-5.75,0-1.11.05-2.17.07-3.16,0-.47,0-.93.05-1.37a.63.63,0,0,0-.59-.59A13.69,13.69,0,0,1,435,115.47Z" style="fill:#263238"></path><path d="M461.62,135.51s-.58-.24-1.65-.62c-.53-.2-1.19-.42-1.93-.77a5.48,5.48,0,0,1-2.2-1.71c-.67-.86-.79-2.06-1.53-2.91s-2.05-.9-3.37-.95c-2.67-.11-5.62-.14-8.7-.05s-6,.25-8.7.46a5.29,5.29,0,0,0-3.4,1.13,9.43,9.43,0,0,0-1,1.32l-.48.67-.25.31a1.21,1.21,0,0,1-.36.27c-1.85.9-3.37,1.47-4.41,1.94s-1.61.72-1.62.69.12-.11.38-.26.65-.36,1.15-.61c1-.52,2.54-1.17,4.32-2.08a1.08,1.08,0,0,0,.25-.18l.23-.31c.15-.22.31-.44.46-.67a10,10,0,0,1,1.07-1.4,5.69,5.69,0,0,1,3.66-1.3c2.67-.23,5.62-.42,8.72-.51s6.06,0,8.74.1a13.26,13.26,0,0,1,2,.18,2.76,2.76,0,0,1,1.69,1c.82,1,.91,2.2,1.5,3a5.27,5.27,0,0,0,2,1.67c.71.36,1.35.61,1.88.84s.92.42,1.18.56S461.63,135.49,461.62,135.51Z" style="fill:#263238"></path><path d="M459.77,136.24s-.14-.05-.37-.18a8.44,8.44,0,0,0-1-.53,20.2,20.2,0,0,0-4.08-1.24,50,50,0,0,0-14.06-.68c-2.78.2-5.41.32-7.78.63s-4.49.78-6.24,1.2c-.87.22-1.66.45-2.34.68a3.89,3.89,0,0,0-1.58.82,1.67,1.67,0,0,0-.52,1.37.66.66,0,0,1-.09-.41,1.64,1.64,0,0,1,.46-1.1,4.06,4.06,0,0,1,1.63-1c.68-.26,1.47-.52,2.35-.76a57.41,57.41,0,0,1,6.27-1.32c2.39-.34,5-.48,7.8-.68a46.34,46.34,0,0,1,14.18.84,17.23,17.23,0,0,1,4.08,1.42,5.24,5.24,0,0,1,1,.62A1.69,1.69,0,0,1,459.77,136.24Z" style="fill:#263238"></path><path d="M443.78,113.68a8.66,8.66,0,0,1-1.29.1l-3.13.08c-1.21,0-2.34,0-3.1.1a1.5,1.5,0,0,0-1.05.63s0-.13.16-.31a1.52,1.52,0,0,1,.85-.46,21.69,21.69,0,0,1,3.14-.16l3.12,0A7.34,7.34,0,0,1,443.78,113.68Z" style="fill:#fafafa"></path><path d="M445.35,128.93a3,3,0,0,1-.66.06l-1.78.1c-1.5.08-3.58.2-5.87.39l-3.23.3a15.22,15.22,0,0,0-2.59.38,2.62,2.62,0,0,0-1.41,1,2.43,2.43,0,0,0-.27.59,1.34,1.34,0,0,1,.2-.63,2.64,2.64,0,0,1,1.43-1.08,13.9,13.9,0,0,1,2.62-.43c1-.11,2.09-.22,3.23-.32,2.3-.19,4.38-.29,5.88-.33l1.79,0A5,5,0,0,1,445.35,128.93Z" style="fill:#fafafa"></path><path d="M438.41,127.1a2.41,2.41,0,0,1,0-.47c0-.42.06-.84.09-1.28.07-1.07.16-2.56.21-4.2s0-3.14,0-4.22v-1.28a1.35,1.35,0,0,1,0-.47,3.2,3.2,0,0,1,.06.47c0,.3.05.74.07,1.28.05,1.08.07,2.57,0,4.22s-.16,3.14-.27,4.22c0,.53-.1,1-.15,1.27A1.5,1.5,0,0,1,438.41,127.1Z" style="fill:#fafafa"></path><path d="M428,132.94s-.13.09-.39.21l-1.1.51-3.67,1.58a15.31,15.31,0,0,0-2,.92,2.53,2.53,0,0,0-1.13,1.28,1.82,1.82,0,0,0,0,1.15,3.1,3.1,0,0,0,.2.39.9.9,0,0,1-.27-.36,1.84,1.84,0,0,1,0-1.23A2.61,2.61,0,0,1,420.8,136a13.26,13.26,0,0,1,2-.95l3.69-1.53,1.13-.44A2.61,2.61,0,0,1,428,132.94Z" style="fill:#fafafa"></path><polygon points="425.51 178.99 426.74 170.52 438.28 174.75 441.54 180.49 443.56 174.19 449.89 172.01 452.6 177.65 447.95 184.22 439.24 185.98 425.51 178.99" style="fill:#e0e0e0"></polygon><path d="M441.74,181.81s-.17-.1-.43-.35a15,15,0,0,1-1.06-1.14,17.06,17.06,0,0,1-2.79-4.81h.43l-2.67,6.72c-.46,1.15-.91,2.26-1.34,3.32l-.14.35-.27-.26c-2.33-2.25-4.34-4.23-5.76-5.65l-1.65-1.68a3.11,3.11,0,0,1-.55-.65,2.94,2.94,0,0,1,.67.53l1.75,1.57c1.48,1.36,3.54,3.28,5.89,5.51l-.41.09c.42-1.06.87-2.17,1.33-3.32l2.73-6.7.22-.55.2.56a18.78,18.78,0,0,0,2.57,4.79C441.25,181.22,441.78,181.77,441.74,181.81Z" style="fill:#263238"></path><path d="M452.6,177.65a9.14,9.14,0,0,1-1.35,1.86,18.49,18.49,0,0,1-4.42,3.89l-.26.15-.1-.28c-.38-1-.82-2.14-1.28-3.29-.69-1.73-1.34-3.37-1.85-4.83l.45,0c-.38,1.91-.85,3.48-1.14,4.58a10.8,10.8,0,0,1-.5,1.74,7.38,7.38,0,0,1,.23-1.8c.21-1.13.62-2.71.95-4.6l.15-.85.3.81c.53,1.44,1.2,3.06,1.89,4.79.47,1.16.9,2.28,1.26,3.32l-.36-.13a21.49,21.49,0,0,0,4.45-3.66A17.58,17.58,0,0,1,452.6,177.65Z" style="fill:#263238"></path><path d="M445.93,268.09a5.27,5.27,0,0,1,.05-.88q.11-.93.27-2.52c.15-1.09.23-2.44.34-4q.09-1.17.18-2.49c0-.89.07-1.83.11-2.81.18-3.93.17-8.61.08-13.81s-.42-10.92-.83-16.91c-.87-12-2.05-22.8-2.94-30.62-.44-3.88-.8-7-1.06-9.27q-.17-1.59-.27-2.52a6.44,6.44,0,0,1-.06-.88,4.43,4.43,0,0,1,.17.87c.09.62.21,1.45.36,2.51.31,2.18.74,5.34,1.23,9.24,1,7.82,2.22,18.64,3.09,30.63.41,6,.68,11.73.79,16.94s0,9.9-.19,13.84c-.05,1-.1,1.92-.15,2.81s-.15,1.71-.22,2.5c-.14,1.56-.25,2.9-.43,4l-.36,2.51A8.15,8.15,0,0,1,445.93,268.09Z" style="fill:#263238"></path><polygon points="436.67 178.61 439.29 179.98 438.8 184.39 434.72 183.53 436.67 178.61" style="fill:#407BFF"></polygon><g style="opacity:0.4"><polygon points="436.67 178.61 439.29 179.98 438.8 184.39 434.72 183.53 436.67 178.61"></polygon></g><polygon points="442.68 179.7 444.66 177.96 446.48 182.57 443.88 183.82 442.68 179.7" style="fill:#407BFF"></polygon><polygon points="439.78 185.46 438.56 237.64 447.38 246.36 451.64 234.78 443.18 185.19 439.78 185.46" style="fill:#407BFF"></polygon><path d="M439.84,178.36c.6-.07,1.43-.23,2.08-.37a1.46,1.46,0,0,1,1.58.73l1.11,2.05a1.49,1.49,0,0,1,.15,1l-.45,2.3a1.45,1.45,0,0,1-1.13,1.15l-2.52.51a1.45,1.45,0,0,1-1.58-.77l-1.26-2.48a1.42,1.42,0,0,1,0-1.24l.87-2A1.46,1.46,0,0,1,439.84,178.36Z" style="fill:#407BFF"></path><path d="M443.5,178.92a5.48,5.48,0,0,1-.67.83c-.43.5-1,1.18-1.72,1.91l-1.77,1.88a5.94,5.94,0,0,1-.78.73,4.79,4.79,0,0,1,.66-.83c.44-.5,1-1.18,1.73-1.92s1.31-1.4,1.77-1.87A5.94,5.94,0,0,1,443.5,178.92Z" style="fill:#263238"></path><path d="M440.92,181.32a12.23,12.23,0,0,1-2.28-2.19,12.23,12.23,0,0,1,2.28,2.19Z" style="fill:#263238"></path><path d="M443.87,184.66a28.37,28.37,0,0,1,.62-3,2.94,2.94,0,0,0-.63-2,1.69,1.69,0,0,1-.3-.86s.12.32.43.78a9.51,9.51,0,0,1,.51.85,1.91,1.91,0,0,1,.2,1.22c-.17.86-.39,1.58-.54,2.12A3.5,3.5,0,0,1,443.87,184.66Z" style="fill:#263238"></path><g style="opacity:0.30000000000000004"><path d="M414.23,250.93a10,10,0,0,0,8.71,2.5c2.19-.44,4.27-1.63,6.5-1.49,2.45.16,4.47,1.87,6.7,2.88,4.16,1.89,9,1.29,13.44.11,2-.54,4.15-1.28,5.46-2.92a9.7,9.7,0,0,0,1.68-4.54,46.7,46.7,0,0,0,.66-9c0-1.89-.25-3.91-1.45-5.37a6.21,6.21,0,0,0-4-2,15.81,15.81,0,0,0-4.6.26A76,76,0,0,0,414,245.62"></path></g><path d="M435.71,241s-28,12.53-30.87,13.16c-9.46,2.07-20.28-6.86-17.27-17.05,1.11-3.79,16.19-45.69,16.19-45.69l14.35,19.83L412,231.53l15.89-1.06Z" style="fill:#e0e0e0"></path><path d="M426.64,230.64a5.68,5.68,0,0,1-1.11.15l-3.07.26c-2.6.21-6.25.46-10.41.72l-.35,0,.1-.34c.31-1,.62-2.07.94-3.14,1.42-4.74,2.73-9,3.7-12.11.47-1.47.87-2.7,1.17-3.65a7.87,7.87,0,0,1,.5-1.32,8,8,0,0,1-.31,1.37c-.27,1-.61,2.21-1,3.7-.88,3.12-2.14,7.41-3.55,12.15-.33,1.08-.64,2.13-1,3.14l-.25-.31c4.16-.25,7.81-.44,10.42-.55l3.08-.12A5.13,5.13,0,0,1,426.64,230.64Z" style="fill:#263238"></path><path d="M432.58,242.62c.05.13-6.1,2.79-13.74,5.93S405,254.15,404.91,254s6.1-2.79,13.74-5.94S432.53,242.5,432.58,242.62Z" style="fill:#263238"></path><path d="M429.19,229.71,427,219a1.38,1.38,0,0,1,1.36-1.66l27.85.13a1.39,1.39,0,0,1,1.37,1.54l-2.88,24.65a1.91,1.91,0,0,1-1.92,1.7l-18.16-.14a1.93,1.93,0,0,1-1.85-1.45Z" style="fill:#455a64"></path><path d="M426.74,224.05h0a2.91,2.91,0,0,1,2.73,1.86c.46,1.19,1.13,2.58,1.87,3,1.37.75,3.73,1.34,5,.74s6.22-5.09,7.09-4.59,1.61,1.62.74,2.61-5.47,4-4.6,5,10.57-3.38,12.06-3,2.36,1.3,1.49,1.9-7.46,3.08-7.83,3.95c0,0,9.95-2.61,10.32-2s1,1.62,0,2-9.57,2.61-10.32,3a18.18,18.18,0,0,1-3.83,1.11c-.27,0-2.22.66-4,1.27a8.77,8.77,0,0,1-6.18-.16l-1-.41a3.94,3.94,0,0,1-2.45-3.89L428,233l-1.08-2.8Z" style="fill:#b78876"></path><path d="M443.45,221.44a1,1,0,1,1-1-1A1,1,0,0,1,443.45,221.44Z" style="fill:#fafafa"></path><rect x="450.85" y="204.27" width="11.4" height="3.69" style="fill:#263238"></rect><polygon points="423.65 273.1 411.54 272.8 412.11 269.13 424.07 269.6 423.65 273.1" style="fill:#455a64"></polygon><polygon points="457.27 273.02 426.85 272.8 427.25 269.44 457.24 269.52 457.27 273.02" style="fill:#455a64"></polygon><path d="M438.94,269.24v4.05a1.11,1.11,0,0,0,1,1.19h8.38a1.11,1.11,0,0,0,1-1.19v-4.05a1.11,1.11,0,0,0-1-1.19h-8.38A1.11,1.11,0,0,0,438.94,269.24ZM448,273h-7.76v-3.43H448Z" style="fill:#fafafa"></path><polygon points="459.88 269.55 459.88 272.98 466.3 273.1 466.39 269.44 459.88 269.55" style="fill:#455a64"></polygon><path d="M396.18,450.31s0-.16.05-.46l.2-1.31c.19-1.19.47-2.88.82-5.06.74-4.42,1.8-10.76,3.1-18.59,2.62-15.72,6.23-37.39,10.22-61.32s7.46-45.66,9.94-61.38c1.22-7.84,2.21-14.2,2.9-18.62.35-2.18.61-3.88.8-5.06.1-.56.17-1,.22-1.31s.09-.45.09-.45a3.68,3.68,0,0,1,0,.45c0,.32-.09.76-.17,1.33-.16,1.18-.39,2.89-.7,5.07-.61,4.41-1.56,10.78-2.74,18.64-2.38,15.74-5.83,37.45-9.79,61.41s-7.64,45.63-10.36,61.3c-1.38,7.82-2.49,14.16-3.27,18.56-.39,2.17-.7,3.87-.92,5-.1.56-.19,1-.25,1.31S396.18,450.31,396.18,450.31Z" style="fill:#455a64"></path><path d="M453.37,451c-.15,0,.11-39,.56-87.06s.94-87.06,1.08-87.06-.11,39-.56,87.07S453.51,451,453.37,451Z" style="fill:#455a64"></path><path d="M463.37,451.68c0,.14-6.08.26-13.59.26s-13.58-.12-13.58-.26,6.08-.26,13.58-.26S463.37,451.53,463.37,451.68Z" style="fill:#455a64"></path><path d="M411.45,450.64a4.84,4.84,0,0,1-1.09.1l-3,.1-9.81.24c-3.83.08-7.3.11-9.81.09-1.26,0-2.27,0-3-.06a4.89,4.89,0,0,1-1.1-.1,4.42,4.42,0,0,1,1.09-.11l3-.1,9.8-.24c3.83-.08,7.3-.11,9.81-.08,1.26,0,2.27,0,3,.06A4.2,4.2,0,0,1,411.45,450.64Z" style="fill:#455a64"></path><path d="M488.72,212.66a24.85,24.85,0,0,1-.26-5,24.85,24.85,0,0,1,.26-5,24,24,0,0,1,.26,5A24,24,0,0,1,488.72,212.66Z" style="fill:#263238"></path><path d="M492.25,213.3a23.07,23.07,0,0,1-2.25-5.19,22.81,22.81,0,0,1-1.4-5.48,46.56,46.56,0,0,1,1.89,5.31A47.8,47.8,0,0,1,492.25,213.3Z" style="fill:#263238"></path></g></svg>