<?xml version="1.0" encoding="iso-8859-1"?>
<!-- Generator: Adobe Illustrator 19.0.0, SVG Export Plug-In . SVG Version: 6.00 Build 0)  -->
<svg version="1.1" id="Capa_1" xmlns="http://www.w3.org/2000/svg" xmlns:xlink="http://www.w3.org/1999/xlink" x="0px" y="0px"
	 viewBox="0 0 416.427 416.427" style="enable-background:new 0 0 416.427 416.427;" xml:space="preserve">
<g>
	<g>
		<path d="M393.247,0H23.18C12.279,0,3.413,8.866,3.413,19.763v247.194c0,10.897,8.866,19.763,19.767,19.763h189.587
			c3.773,0,6.827-3.057,6.827-6.827s-3.053-6.827-6.827-6.827H23.18c-3.374,0-6.113-2.739-6.113-6.11V19.763
			c0-3.371,2.739-6.11,6.113-6.11h370.067c3.374,0,6.113,2.739,6.113,6.11v157.164c0,3.77,3.053,6.827,6.827,6.827
			s6.827-3.057,6.827-6.827V19.763C413.013,8.866,404.147,0,393.247,0z"/>
	</g>
</g>
<g>
	<g>
		<path d="M385.707,20.48H30.72c-3.773,0-6.827,3.057-6.827,6.827v232.107c0,3.77,3.053,6.827,6.827,6.827h184.32
			c3.773,0,6.827-3.057,6.827-6.827s-3.053-6.827-6.827-6.827H37.547V34.133H378.88v13.653c0,3.77,3.053,6.827,6.827,6.827
			s6.827-3.057,6.827-6.827v-20.48C392.533,23.537,389.48,20.48,385.707,20.48z"/>
	</g>
</g>
<g>
	<g>
		<path d="M215.04,273.067h-27.307c-3.773,0-6.827,3.057-6.827,6.827v47.787c0,3.77,3.053,6.827,6.827,6.827h27.307
			c3.773,0,6.827-3.057,6.827-6.827v-47.787C221.867,276.123,218.813,273.067,215.04,273.067z M208.213,320.853H194.56V286.72
			h13.653V320.853z"/>
	</g>
</g>
<g>
	<g>
		<path d="M215.04,320.853h-75.093c-3.773,0-6.827,3.057-6.827,6.827s3.053,6.827,6.827,6.827h75.093
			c3.773,0,6.827-3.057,6.827-6.827S218.813,320.853,215.04,320.853z"/>
	</g>
</g>
<g>
	<g>
		<path d="M392.593,47.787H228.634c-11.261,0-20.42,9.16-20.42,20.42v327.799c0,11.261,9.16,20.42,20.42,20.42h163.959
			c11.261,0,20.42-9.16,20.42-20.42V68.207C413.013,56.946,403.854,47.787,392.593,47.787z M399.36,396.006
			c0,3.731-3.033,6.767-6.767,6.767H228.634c-3.734,0-6.767-3.036-6.767-6.767V68.207c0-3.731,3.033-6.767,6.767-6.767h163.959
			c3.734,0,6.767,3.036,6.767,6.767V396.006z"/>
	</g>
</g>
<g>
	<g>
		<path d="M385.707,68.267H235.52c-3.773,0-6.827,3.057-6.827,6.827v266.24c0,3.77,3.053,6.827,6.827,6.827h150.187
			c3.773,0,6.827-3.057,6.827-6.827V75.093C392.533,71.323,389.48,68.267,385.707,68.267z M378.88,334.507H242.347V81.92H378.88
			V334.507z"/>
	</g>
</g>
<g>
	<g>
		<path d="M310.613,354.987c-11.293,0-20.48,9.187-20.48,20.48s9.187,20.48,20.48,20.48s20.48-9.187,20.48-20.48
			S321.906,354.987,310.613,354.987z M310.613,382.293c-3.767,0-6.827-3.063-6.827-6.827c0-3.763,3.06-6.827,6.827-6.827
			s6.827,3.063,6.827,6.827C317.44,379.23,314.38,382.293,310.613,382.293z"/>
	</g>
</g>
<g>
	<g>
		<path d="M281.306,97.574c-2.666-2.666-6.987-2.666-9.653,0l-17.067,17.067c-2.666,2.666-2.666,6.987,0,9.653
			c1.333,1.333,3.081,2,4.826,2s3.494-0.667,4.826-2l17.067-17.067C283.972,104.561,283.972,100.239,281.306,97.574z"/>
	</g>
</g>
<g>
	<g>
		<path d="M308.613,97.574c-2.666-2.666-6.987-2.666-9.653,0l-37.547,37.547c-2.666,2.666-2.666,6.987,0,9.653
			c1.333,1.333,3.081,2,4.826,2s3.494-0.667,4.826-2l37.547-37.547C311.279,104.561,311.279,100.239,308.613,97.574z"/>
	</g>
</g>
<g>
	<g>
		<path d="M83.333,56.614c-2.666-2.666-6.987-2.666-9.653,0L56.614,73.68c-2.666,2.666-2.666,6.987,0,9.653
			c1.333,1.333,3.081,2,4.826,2s3.494-0.667,4.826-2l17.067-17.067C85.999,63.601,85.999,59.279,83.333,56.614z"/>
	</g>
</g>
<g>
	<g>
		<path d="M110.64,56.614c-2.666-2.666-6.987-2.666-9.653,0L63.44,94.16c-2.666,2.666-2.666,6.987,0,9.653
			c1.333,1.333,3.081,2,4.826,2s3.494-0.667,4.826-2l37.547-37.547C113.306,63.601,113.306,59.279,110.64,56.614z"/>
	</g>
</g>
<g>
</g>
<g>
</g>
<g>
</g>
<g>
</g>
<g>
</g>
<g>
</g>
<g>
</g>
<g>
</g>
<g>
</g>
<g>
</g>
<g>
</g>
<g>
</g>
<g>
</g>
<g>
</g>
<g>
</g>
</svg>
