<?xml version='1.0' encoding='iso-8859-1'?>
<svg version="1.1" xmlns="http://www.w3.org/2000/svg" viewBox="0 0 470.033 470.033" xmlns:xlink="http://www.w3.org/1999/xlink" enable-background="new 0 0 470.033 470.033">
  <g>
    <path d="m350.979,85.017h-260.949c-4.142,0-7.5,3.358-7.5,7.5s3.358,7.5 7.5,7.5h260.949c3.339,12.925 15.097,22.5 29.051,22.5 16.542,0 30-13.458 30-30s-13.458-30-30-30c-13.953,7.10543e-15-25.712,9.575-29.051,22.5zm44.051,7.5c0,8.271-6.729,15-15,15s-15-6.729-15-15 6.729-15 15-15 15,6.729 15,15z"/>
    <path d="m444.9,346.826l-4.87,.573v-96.49c6.731,0.757 7.12,0.758 7.518,0.758 11.396,0 20.995-8.543 22.328-19.873 0.702-5.969-0.962-11.854-4.687-16.572-3.724-4.717-9.062-7.702-15.031-8.404l-10.128-1.192v-32.156c0-4.142-3.358-7.5-7.5-7.5h-75.004c-4.142,0-7.5,3.358-7.5,7.5v21.568l-16.669-1.961v-32.156c0-4.142-3.358-7.5-7.5-7.5h-75.004c-4.142,0-7.5,3.358-7.5,7.5v21.567l-16.67-1.961v-32.155c0-4.142-3.358-7.5-7.5-7.5h-75.004c-4.142,0-7.5,3.358-7.5,7.5v21.566l-16.669-1.961v-32.155c0-4.142-3.358-7.5-7.5-7.5h-75.007c-4.142,0-7.5,3.358-7.5,7.5v21.566l-4.874-.573c-12.322-1.443-23.524,7.401-24.973,19.718-0.702,5.969 0.962,11.854 4.687,16.572 3.724,4.717 9.062,7.702 15.031,8.404l10.128,1.192v192.937l-10.129,1.192c-12.32,1.45-21.165,12.654-19.716,24.975 1.333,11.33 10.932,19.874 22.328,19.874 0.411,0 0.515-0.001 7.518-0.818v21.655c0,4.142 3.358,7.5 7.5,7.5h75.004c4.142,0 7.5-3.358 7.5-7.5v-32.206l16.669-1.957v21.613c0,4.142 3.358,7.5 7.5,7.5h75.004c4.142,0 7.5-3.358 7.5-7.5v-32.184l16.67-1.958v21.593c0,4.142 3.358,7.5 7.5,7.5h75.004c4.142,0 7.5-3.358 7.5-7.5v-32.169l16.669-1.959v21.579c0,4.142 3.358,7.5 7.5,7.5h75.004c4.142,0 7.5-3.358 7.5-7.5v-32.158l10.128-1.191c5.969-0.703 11.307-3.687 15.031-8.404 3.725-4.717 5.389-10.603 4.687-16.571-1.446-12.316-12.652-21.161-24.973-19.718zm3.505-125.11c1.99,0.234 3.77,1.229 5.011,2.802 1.242,1.572 1.796,3.534 1.562,5.524-0.435,3.699-3.507,6.507-7.194,6.622-0.987-0.093-4.213-0.451-7.755-0.851v-15.083l8.376,.986zm-115.049,16.673l16.669,1.961v117.638l-16.669,1.961v-121.56zm16.669-28.247v15.105l-16.669-1.961v-15.106l16.669,1.962zm-106.673-12.551v15.106l-16.67-1.961v-15.106l16.67,1.961zm-106.675-12.549v15.105l-16.669-1.961v-15.105l16.669,1.961zm-115.049,1.57c-1.99-0.234-3.77-1.229-5.011-2.802-1.242-1.572-1.796-3.534-1.562-5.524 0.483-4.105 4.214-7.055 8.326-6.573l6.623,.779v15.105l-8.376-.985zm.518,240.059c-3.641-0.164-6.66-2.954-7.091-6.619-0.483-4.107 2.466-7.842 6.573-8.326l8.375-.985v15.018c-5.147,0.601-7.122,0.829-7.857,0.912zm82.862,28.346h-60.005v-311.695h60.004v190.161c0,4.142 3.358,7.5 7.5,7.5s7.5-3.358 7.5-7.5v-120.193l16.669,1.961v167.837l-16.669,1.961v-21.566c0-4.142-3.358-7.5-7.5-7.5s-7.5,3.358-7.5,7.5v91.534zm15.001-39.809v-15.055l16.669-1.961v15.06l-16.669,1.956zm91.674,27.259h-60.004v-286.595h60.004v286.595zm15-39.786v-15.078l16.67-1.961v15.081l-16.67,1.958zm91.674,27.238h-60.004v-148.787c0-4.142-3.358-7.5-7.5-7.5s-7.5,3.358-7.5,7.5v89.406l-16.67,1.961v-146.659l16.67,1.961v23.331c0,4.142 3.358,7.5 7.5,7.5s7.5-3.358 7.5-7.5v-82.711h60.004v261.498zm15-39.773v-15.093l16.669-1.961v15.095l-16.669,1.959zm91.674,27.223h-60.004v-236.399h60.004v236.399zm28.387-43.548c-1.242,1.573-3.021,2.568-5.01,2.802l-8.376,.985v-15.105l6.62-.779c4.102-0.48 7.846,2.466 8.329,6.573 0.233,1.99-0.322,3.952-1.563,5.524z"/>
    <circle cx="75.006" cy="413" r="7.5"/>
    <circle cx="75.006" cy="185.339" r="7.5"/>
    <circle cx="181.68" cy="400.449" r="7.5"/>
    <circle cx="181.68" cy="197.89" r="7.5"/>
    <circle cx="288.354" cy="387.9" r="7.5"/>
    <circle cx="288.354" cy="210.439" r="7.5"/>
    <circle cx="395.028" cy="375.35" r="7.5"/>
    <circle cx="395.028" cy="222.989" r="7.5"/>
    <path d="m90.03,60.017c13.953,0 25.712-9.575 29.051-22.5h260.949c4.142,0 7.5-3.358 7.5-7.5s-3.358-7.5-7.5-7.5h-260.95c-3.339-12.925-15.097-22.5-29.051-22.5-16.542,0-30,13.458-30,30s13.459,30 30.001,30zm0-45c8.271-3.55271e-15 15,6.729 15,15s-6.729,15-15,15-15-6.729-15-15 6.729-15 15-15z"/>
  </g>
</svg>
